<?xml version="1.0" encoding="UTF-8"?>
<svg version="1.1" xmlns="http://www.w3.org/2000/svg" width="1066" height="234">
<path d="M0 0 C0.84142294 0.00291284 1.68284588 0.00582568 2.54976648 0.00882679 C3.43675177 0.00797237 4.32373706 0.00711794 5.23760068 0.00623763 C8.23335384 0.0045801 11.22905198 0.01010863 14.22480005 0.01555592 C16.36285139 0.01583776 18.50090282 0.01568012 20.6389541 0.01511341 C26.46309771 0.01482531 32.28722093 0.02072409 38.11135978 0.02768737 C44.1905896 0.0339188 50.26981984 0.03452454 56.34905237 0.03571278 C67.86983776 0.03882672 79.39061372 0.04704095 90.91139495 0.05706227 C104.02362207 0.06822146 117.13584963 0.07373336 130.24808031 0.0787577 C157.22917638 0.08922352 184.21026405 0.10682417 211.19135278 0.12908131 C211.23276895 1.07453816 211.27418512 2.01999501 211.31685632 2.99410206 C211.38573557 4.24279072 211.45461481 5.49147938 211.5255813 6.77800709 C211.61864305 8.62931736 211.61864305 8.62931736 211.71358484 10.51802784 C212.47048614 16.23881993 215.16345648 20.32418566 218.19135278 25.12908131 C219.29019612 27.12392485 220.37456217 29.12680285 221.44525903 31.13689381 C221.98988794 32.14365162 222.53451685 33.15040943 223.09564966 34.18767506 C224.20527108 36.23962516 225.31464426 38.29170951 226.42377466 40.34392506 C226.9671145 41.34810475 227.51045435 42.35228443 228.07025903 43.38689381 C228.59450464 44.35860523 229.11875025 45.33031666 229.65888208 46.33147389 C230.64783687 48.13686386 231.65586986 49.93199434 232.68671411 51.71379811 C233.13941675 52.49666188 233.59211939 53.27952564 234.05854028 54.08611256 C234.45798853 54.76133961 234.85743677 55.43656666 235.2689895 56.13225514 C237.29159182 60.51099107 236.91066797 64.78072878 235.52729028 69.29705006 C233.68307097 73.57082786 231.25120152 76.7435305 227.33979028 79.29705006 C223.10403152 80.93744391 218.64867301 80.49179272 214.19135278 80.12908131 C214.37697778 80.74783131 214.56260278 81.36658131 214.75385278 82.00408131 C215.19135278 84.12908131 215.19135278 84.12908131 214.19135278 86.12908131 C227.06135278 86.12908131 239.93135278 86.12908131 253.19135278 86.12908131 C253.19135278 104.60908131 253.19135278 123.08908131 253.19135278 142.12908131 C240.65135278 142.45908131 228.11135278 142.78908131 215.19135278 143.12908131 C214.86135278 150.05908131 214.53135278 156.98908131 214.19135278 164.12908131 C216.83135278 164.12908131 219.47135278 164.12908131 222.19135278 164.12908131 C223.37442006 166.49521587 223.32489886 167.99688867 223.31635278 170.62908131 C223.31893091 171.42314381 223.32150903 172.21720631 223.32416528 173.03533131 C223.19135278 175.12908131 223.19135278 175.12908131 222.19135278 177.12908131 C143.32135278 177.12908131 64.45135278 177.12908131 -16.80864722 177.12908131 C-17.93364722 168.12908131 -17.93364722 168.12908131 -16.80864722 164.12908131 C-15.15864722 163.79908131 -13.50864722 163.46908131 -11.80864722 163.12908131 C-11.62302222 161.48939381 -11.62302222 161.48939381 -11.43364722 159.81658131 C-10.80864722 156.12908131 -10.80864722 156.12908131 -8.80864722 153.12908131 C-7.48864722 153.45908131 -6.16864722 153.78908131 -4.80864722 154.12908131 C-4.47864722 157.09908131 -4.14864722 160.06908131 -3.80864722 163.12908131 C1.47135278 163.45908131 6.75135278 163.78908131 12.19135278 164.12908131 C11.86135278 163.46908131 11.53135278 162.80908131 11.19135278 162.12908131 C11.12317347 159.8565504 11.12341798 157.58187568 11.15375513 155.30852467 C11.16575701 154.25711041 11.16575701 154.25711041 11.17800134 153.18445545 C11.20593164 150.86251353 11.24138721 148.54075641 11.27729028 146.21892506 C11.29905132 144.60992548 11.3205012 143.00092167 11.34165186 141.39191395 C11.38717836 138.01835761 11.43640769 134.64488066 11.48822778 131.27141529 C11.55450957 126.93784916 11.61175329 122.60421955 11.6662578 118.27049118 C11.7090097 114.94800103 11.75645738 111.62559089 11.80535501 108.303186 C11.82832056 106.70474012 11.84982164 105.10627253 11.86986154 103.50778729 C11.89852742 101.27850379 11.93347822 99.04940741 11.97016138 96.82024342 C11.98872186 95.54942417 12.00728235 94.27860493 12.02640527 92.96927601 C12.19135278 90.12908131 12.19135278 90.12908131 13.19135278 89.12908131 C15.00190304 89.03532078 16.8161248 89.01164021 18.62909693 89.01555592 C20.39525354 89.01573719 20.39525354 89.01573719 22.19709009 89.01592213 C23.44429834 89.0210381 24.69150659 89.02615406 25.97650903 89.03142506 C27.11567774 89.03243214 28.25484644 89.03343922 29.4285354 89.03447682 C33.70365137 89.03972793 37.97875304 89.05368904 42.25385278 89.06658131 C51.80322778 89.08720631 61.35260278 89.10783131 71.19135278 89.12908131 C71.19135278 113.54908131 71.19135278 137.96908131 71.19135278 163.12908131 C82.08135278 162.94345631 92.97135278 162.75783131 104.19135278 162.56658131 C130.07812185 162.17244305 155.93085947 162.09355095 181.81635278 162.56658131 C182.86928522 162.58580206 182.86928522 162.58580206 183.94348902 162.60541111 C192.35986481 162.76075639 200.77579288 162.93437701 209.19135278 163.12908131 C209.13023689 151.82006974 209.05320009 140.51129077 208.95563787 129.2025314 C208.91084389 123.95182655 208.87160792 118.70120093 208.84491724 113.45037037 C208.81897403 108.38630688 208.7786361 103.32254679 208.72816652 98.25867039 C208.71143677 96.32334745 208.69996069 94.38797196 208.69373888 92.45258671 C208.68416386 89.74888496 208.65618521 87.04597018 208.62372583 84.34246022 C208.62516092 83.53613652 208.62659601 82.72981282 208.62807459 81.89905506 C208.62144426 79.44707275 208.62144426 79.44707275 208.19135278 76.12908131 C207.20135278 75.46908131 206.21135278 74.80908131 205.19135278 74.12908131 C204.63447778 74.55060475 204.07760278 74.97212818 203.50385278 75.40642506 C198.28166312 79.15546325 194.68556487 81.23382667 188.19135278 81.12908131 C184.56635278 79.87908131 184.56635278 79.87908131 181.19135278 78.12908131 C180.05697778 77.57220631 178.92260278 77.01533131 177.75385278 76.44158131 C176.90822778 76.00845631 176.06260278 75.57533131 175.19135278 75.12908131 C174.18072778 75.93345631 173.17010278 76.73783131 172.12885278 77.56658131 C168.45672052 80.14958417 165.77607941 81.12908131 161.19135278 81.12908131 C156.23989612 80.03611763 152.73866326 78.77921238 149.19135278 75.12908131 C146.21315933 75.23177764 145.00032747 76.28667719 142.69135278 78.19158131 C138.04616198 81.378535 132.55192271 81.07385609 127.19135278 80.12908131 C123.84409049 78.50017448 121.02514173 76.53350829 118.19135278 74.12908131 C117.24260278 74.93345631 116.29385278 75.73783131 115.31635278 76.56658131 C110.89900666 80.31172259 107.70338756 80.46327268 101.95697778 80.41814381 C96.85223988 79.88459776 93.51684161 76.82406889 90.19135278 73.12908131 C89.04666528 74.30470631 89.04666528 74.30470631 87.87885278 75.50408131 C83.83452743 79.45435259 81.07567078 80.71390958 75.60541528 81.23064381 C70.08459301 80.99837621 65.33257444 77.58009935 61.19135278 74.12908131 C60.76725122 74.55060475 60.34314966 74.97212818 59.90619653 75.40642506 C55.81097999 79.23162733 53.02881704 81.22972724 47.19135278 81.12908131 C41.64659432 79.94365019 37.38013587 78.04762033 33.19135278 74.12908131 C32.63447778 74.55060475 32.07760278 74.97212818 31.50385278 75.40642506 C22.28249558 82.02648724 22.28249558 82.02648724 16.19135278 81.12908131 C11.73047618 79.44721914 7.58280661 77.52053514 4.19135278 74.12908131 C3.70924341 74.56220631 3.22713403 74.99533131 2.73041528 75.44158131 C2.09877466 75.99845631 1.46713403 76.55533131 0.81635278 77.12908131 C0.18986841 77.68595631 -0.43661597 78.24283131 -1.08208472 78.81658131 C-2.80864722 80.12908131 -2.80864722 80.12908131 -4.80864722 80.12908131 C-4.80864722 102.56908131 -4.80864722 125.00908131 -4.80864722 148.12908131 C-6.12864722 147.79908131 -7.44864722 147.46908131 -8.80864722 147.12908131 C-9.13864722 125.34908131 -9.46864722 103.56908131 -9.80864722 81.12908131 C-11.78864722 80.79908131 -13.76864722 80.46908131 -15.80864722 80.12908131 C-20.21027967 77.8319071 -23.24543442 75.0619025 -25.80864722 70.81658131 C-28.32754005 61.52816398 -26.00754759 55.09708364 -21.99614722 46.56658131 C-21.09207228 44.58690224 -20.18969423 42.60644725 -19.28911597 40.62517506 C-18.85760229 39.68577076 -18.42608862 38.74636647 -17.98149878 37.77849537 C-16.95588648 35.46168758 -16.03911258 33.14793763 -15.17974097 30.76580006 C-13.92531824 27.43854207 -12.44752813 24.57979326 -10.68364722 21.50408131 C-7.63599454 15.61195281 -7.0650498 10.4437653 -6.91411597 3.86736256 C-6.72328076 -1.0872849 -4.37126225 0.01148375 0 0 Z M-1.80864722 4.12908131 C-1.80864722 6.76908131 -1.80864722 9.40908131 -1.80864722 12.12908131 C67.49135278 12.12908131 136.79135278 12.12908131 208.19135278 12.12908131 C208.19135278 9.48908131 208.19135278 6.84908131 208.19135278 4.12908131 C138.89135278 4.12908131 69.59135278 4.12908131 -1.80864722 4.12908131 Z M-3.80864722 17.12908131 C-6.11289563 22.35883407 -8.41226175 27.59019242 -10.69951636 32.8273235 C-11.47957712 34.60948358 -12.26244927 36.39041578 -13.04814917 38.17009693 C-14.1748967 40.72358409 -15.29156754 43.28126938 -16.40630347 45.84001881 C-16.9390161 47.0385297 -16.9390161 47.0385297 -17.4824906 48.26125294 C-18.31791227 50.19231626 -19.07159088 52.15837512 -19.80864722 54.12908131 C-19.47864722 54.78908131 -19.14864722 55.44908131 -18.80864722 56.12908131 C-11.49562786 57.34791787 -4.20534064 57.23197194 3.19135278 57.12908131 C3.38769312 56.50453053 3.58403345 55.87997975 3.78632349 55.23650318 C4.68992339 52.36665079 5.59686468 49.49786461 6.50385278 46.62908131 C6.81258325 45.64681568 7.12131372 44.66455006 7.43939966 43.65251881 C8.81225015 39.31720148 10.20084855 35.00577873 11.81635278 30.75408131 C12.96378998 27.72901962 13.97366957 24.73256662 14.87885278 21.62908131 C15.31197778 20.14408131 15.74510278 18.65908131 16.19135278 17.12908131 C9.59135278 17.12908131 2.99135278 17.12908131 -3.80864722 17.12908131 Z M21.19135278 17.12908131 C18.97008697 23.05245683 16.79437087 28.97690775 14.69135278 34.94158131 C14.39615747 35.76722584 14.10096216 36.59287037 13.79682153 37.44353443 C11.61386042 43.64141301 9.93133597 49.74914297 8.19135278 56.12908131 C16.11135278 56.12908131 24.03135278 56.12908131 32.19135278 56.12908131 C33.64309876 51.22018983 35.08858932 46.31030087 36.51874536 41.39519459 C37.00703115 39.72389822 37.49886917 38.05363539 37.9943313 36.3844524 C38.70610903 33.98425508 39.40500692 31.58062434 40.10150903 29.17595631 C40.32540811 28.43101918 40.54930719 27.68608204 40.77999109 26.91857105 C41.89525925 23.01828692 42.20099004 21.16763031 41.19135278 17.12908131 C34.59135278 17.12908131 27.99135278 17.12908131 21.19135278 17.12908131 Z M47.19135278 17.12908131 C45.76225985 22.03903633 44.33645709 26.9497062 42.91889185 31.86296803 C42.43577646 33.53376908 41.95076495 35.20402308 41.46381372 36.87371022 C40.7638179 39.27512446 40.07068642 41.67842972 39.37885278 44.08220631 C39.16011499 44.82714344 38.9413772 45.57208058 38.71601099 46.33959156 C37.73374512 49.77603981 37.19135278 52.5224646 37.19135278 56.12908131 C44.78135278 56.12908131 52.37135278 56.12908131 60.19135278 56.12908131 C60.85135278 53.15908131 61.51135278 50.18908131 62.19135278 47.12908131 C63.03876052 43.74584591 63.89794368 40.36685594 64.77924341 36.99236256 C65.86989776 32.72167771 66.61162966 28.49596762 67.19135278 24.12908131 C67.50072778 23.01533131 67.50072778 23.01533131 67.81635278 21.87908131 C68.39611124 19.89671497 68.39611124 19.89671497 67.19135278 17.12908131 C60.59135278 17.12908131 53.99135278 17.12908131 47.19135278 17.12908131 Z M73.19135278 17.12908131 C72.00242346 22.03787964 70.82227556 26.94718474 69.66352075 31.86296803 C69.2668251 33.53440931 68.86516453 35.20468035 68.45844263 36.87371022 C67.87452338 39.27363262 67.30861466 41.6772032 66.74604028 44.08220631 C66.46807108 45.19961201 66.46807108 45.19961201 66.18448633 46.33959156 C65.17648664 50.74353518 65.08074791 51.90787156 67.19135278 56.12908131 C74.12135278 56.12908131 81.05135278 56.12908131 88.19135278 56.12908131 C89.05785281 52.6630812 89.46382357 49.65580354 89.72650903 46.11345631 C89.81352075 44.94427662 89.90053247 43.77509693 89.99018091 42.57048756 C90.07719263 41.3523235 90.16420435 40.13415943 90.25385278 38.87908131 C90.34473169 37.676386 90.4356106 36.47369068 90.52924341 35.23455006 C90.97316679 29.15313346 91.19135278 23.24583596 91.19135278 17.12908131 C85.25135278 17.12908131 79.31135278 17.12908131 73.19135278 17.12908131 Z M96.19135278 17.12908131 C95.32485276 20.59508142 94.918882 23.60235908 94.65619653 27.14470631 C94.56918482 28.313886 94.4821731 29.48306568 94.39252466 30.68767506 C94.30551294 31.90583912 94.21850122 33.12400318 94.12885278 34.37908131 C94.03797388 35.58177662 93.94709497 36.78447193 93.85346216 38.02361256 C93.40953877 44.10502916 93.19135278 50.01232666 93.19135278 56.12908131 C100.78135278 56.12908131 108.37135278 56.12908131 116.19135278 56.12908131 C116.3413382 43.08034976 115.84007265 30.08330879 114.19135278 17.12908131 C108.25135278 17.12908131 102.31135278 17.12908131 96.19135278 17.12908131 Z M119.19135278 17.12908131 C118.88996757 30.23933811 120.06753164 43.06466054 121.19135278 56.12908131 C129.11135278 56.12908131 137.03135278 56.12908131 145.19135278 56.12908131 C144.26322778 51.76689381 144.26322778 51.76689381 143.31635278 47.31658131 C141.9744548 40.97945052 140.68252322 34.64309233 139.58588403 28.25798756 C138.84013944 24.23392019 137.73824115 20.99630221 136.19135278 17.12908131 C130.58135278 17.12908131 124.97135278 17.12908131 119.19135278 17.12908131 Z M141.19135278 20.12908131 C141.50088117 23.06643466 141.96383599 25.66278362 142.64838403 28.51580006 C142.83019724 29.33280888 143.01201044 30.1498177 143.19933313 30.99158436 C143.78460475 33.60389733 144.39386938 36.20993968 145.00385278 38.81658131 C145.40453197 40.58510189 145.80364063 42.35397908 146.20111841 44.12322193 C147.17678545 48.46381999 148.18468321 52.79510388 149.19135278 57.12908131 C157.11135278 57.12908131 165.03135278 57.12908131 173.19135278 57.12908131 C171.03008744 47.56963842 168.69902002 38.11490743 166.00385278 28.69158131 C165.74201196 27.77417164 165.48017114 26.85676197 165.21039575 25.91155201 C163.96807647 21.41852289 163.96807647 21.41852289 162.19135278 17.12908131 C159.25330283 17.04821755 156.31747204 16.98865301 153.37885278 16.94158131 C152.54547388 16.91644459 151.71209497 16.89130787 150.85346216 16.86540943 C150.05102075 16.85574147 149.24857935 16.8460735 148.42182153 16.83611256 C147.68343042 16.82040211 146.94503931 16.80469166 146.18427271 16.78850514 C143.59056499 17.23175177 142.80548384 18.08304694 141.19135278 20.12908131 Z M170.19135278 17.12908131 C167.74060508 20.06678992 167.74060508 20.06678992 168.80854028 23.90642506 C169.24939436 25.65250441 169.71335618 27.39280234 170.19135278 29.12908131 C170.4958938 30.23654713 170.80043482 31.34401295 171.11420435 32.48503834 C172.16278913 36.22619253 173.23586901 39.95952162 174.31635278 43.69158131 C174.69290296 44.99945261 175.06920688 46.30739484 175.44525903 47.61540943 C176.35821237 50.78733706 177.27363685 53.958529 178.19135278 57.12908131 C183.76306846 57.17918917 189.26250339 57.14571846 194.81635278 56.62908131 C196.35162622 56.48986256 196.35162622 56.48986256 197.91791528 56.34783131 C198.66814966 56.27564381 199.41838403 56.20345631 200.19135278 56.12908131 C201.352805 52.64472466 201.02599369 52.02762202 199.71479028 48.73455006 C199.37600855 47.86733326 199.03722681 47.00011647 198.68817896 46.10662037 C198.31797632 45.18590748 197.94777368 44.26519459 197.56635278 43.31658131 C196.81872555 41.42004969 196.07263559 39.52291135 195.32807153 37.62517506 C194.96117212 36.69302174 194.59427271 35.76086842 194.21625513 34.80046803 C192.41496992 30.10545547 190.85148714 25.33281585 189.29682153 20.55095631 C188.93201685 19.75173756 188.56721216 18.95251881 188.19135278 18.12908131 C184.62632711 16.94073942 181.34112549 16.90717798 177.62885278 16.87908131 C176.94371607 16.85845631 176.25857935 16.83783131 175.55268091 16.81658131 C173.32811542 16.76438895 173.32811542 16.76438895 170.19135278 17.12908131 Z M193.19135278 20.12908131 C195.71321542 27.89574797 198.52749927 35.54051717 201.37885278 43.19158131 C201.84708961 44.4512957 202.31518955 45.71106097 202.78314966 46.97087818 C203.91787616 50.02411135 205.05442924 53.07666557 206.19135278 56.12908131 C213.45135278 56.12908131 220.71135278 56.12908131 228.19135278 56.12908131 C227.28145051 50.66966766 225.95036584 47.65169426 223.19135278 43.12908131 C222.37170904 41.6630003 221.55953437 40.1927251 220.75385278 38.71892506 C220.33361841 37.95644459 219.91338403 37.19396412 219.48041528 36.40837818 C218.6193896 34.84418152 217.76001996 33.27907215 216.90229028 31.71306568 C214.51188597 27.38320756 212.14266717 23.1044509 209.19135278 19.12908131 C208.53135278 19.12908131 207.87135278 19.12908131 207.19135278 19.12908131 C207.19135278 18.46908131 207.19135278 17.80908131 207.19135278 17.12908131 C205.42127565 17.04794025 203.65013181 16.98982626 201.87885278 16.94158131 C200.89271997 16.90677662 199.90658716 16.87197193 198.89057153 16.83611256 C195.75454503 17.1764917 195.22375488 17.86708822 193.19135278 20.12908131 Z M201.19135278 55.12908131 C202.19135278 57.12908131 202.19135278 57.12908131 202.19135278 57.12908131 Z M-21.80864722 61.12908131 C-21.63361314 69.40014696 -21.63361314 69.40014696 -19.05864722 72.56658131 C-15.28615703 75.18636616 -12.97266173 76.17065326 -8.30864722 76.00408131 C-4.39511677 75.0256987 -2.57164172 74.04996121 0.19135278 71.12908131 C1.79275235 67.46873944 2.19135278 65.15835298 2.19135278 61.12908131 C-5.72864722 61.12908131 -13.64864722 61.12908131 -21.80864722 61.12908131 Z M35.19135278 61.12908131 C35.75389899 68.9786961 35.75389899 68.9786961 40.19135278 74.12908131 C44.54683981 76.19320342 47.3736571 76.38377341 52.00385278 74.94158131 C55.37389896 73.21169161 55.37389896 73.21169161 58.19135278 70.12908131 C58.52135278 67.15908131 58.85135278 64.18908131 59.19135278 61.12908131 C51.27135278 61.12908131 43.35135278 61.12908131 35.19135278 61.12908131 Z M93.19135278 61.12908131 C92.84064804 68.07377629 92.84064804 68.07377629 96.19135278 73.12908131 C99.57082242 75.31859684 102.57660028 76.33777307 106.60932153 75.81658131 C110.29813737 74.75747595 112.61913015 73.77283177 115.19135278 70.87908131 C116.52513024 67.50431838 116.52513024 67.50431838 117.19135278 61.12908131 C109.27135278 61.12908131 101.35135278 61.12908131 93.19135278 61.12908131 Z M122.19135278 63.12908131 C122.32877515 66.83948528 122.65790021 69.3395715 124.75385278 72.44158131 C128.09474485 74.75450658 131.12240061 75.87809921 135.19135278 76.12908131 C139.6018093 74.95295957 141.6395741 73.76574902 144.62885278 70.31658131 C146.31912723 66.86842144 146.3227288 64.89694549 146.19135278 61.12908131 C142.56641944 61.07120347 138.94160421 61.03552711 135.31635278 61.00408131 C133.76754419 60.97894459 133.76754419 60.97894459 132.18744653 60.95330006 C131.20131372 60.94685475 130.21518091 60.94040943 129.19916528 60.93376881 C128.28795923 60.92329518 127.37675318 60.91282154 126.43793482 60.90203053 C123.98844842 60.91037138 123.98844842 60.91037138 122.19135278 63.12908131 Z M150.19135278 61.12908131 C150.75389899 68.9786961 150.75389899 68.9786961 155.19135278 74.12908131 C159.40435529 76.16552154 163.02772135 76.51396175 167.50385278 75.12908131 C170.47244935 73.80516889 171.2212176 73.08708391 173.19135278 70.31658131 C174.49069286 66.73171516 174.49069286 66.73171516 174.19135278 61.12908131 C166.27135278 61.12908131 158.35135278 61.12908131 150.19135278 61.12908131 Z M207.19135278 61.12908131 C207.75389899 68.9786961 207.75389899 68.9786961 212.19135278 74.12908131 C216.40435529 76.16552154 220.02772135 76.51396175 224.50385278 75.12908131 C227.47244935 73.80516889 228.2212176 73.08708391 230.19135278 70.31658131 C231.49069286 66.73171516 231.49069286 66.73171516 231.19135278 61.12908131 C223.27135278 61.12908131 215.35135278 61.12908131 207.19135278 61.12908131 Z M6.19135278 62.12908131 C6.57662994 68.75416531 6.57662994 68.75416531 9.25385278 71.94158131 C12.81920308 74.5966294 15.73307621 75.92604784 20.19135278 76.12908131 C24.62379288 74.96647407 26.54991166 74.11262436 29.06635278 70.25408131 C30.37064783 66.87228652 30.37064783 66.87228652 31.19135278 62.12908131 C22.94135278 62.12908131 14.69135278 62.12908131 6.19135278 62.12908131 Z M64.19135278 64.12908131 C64.33858991 67.51553527 64.81214355 69.58302002 66.75385278 72.37908131 C70.09474849 74.7776731 73.048182 76.01669874 77.19135278 76.12908131 C81.46454686 74.96366474 84.38862193 73.10740954 87.19135278 69.69158131 C88.26096815 66.95069193 88.26904836 65.03780948 88.19135278 62.12908131 C84.56641944 62.07120347 80.94160421 62.03552711 77.31635278 62.00408131 C75.76754419 61.97894459 75.76754419 61.97894459 74.18744653 61.95330006 C73.20131372 61.94685475 72.21518091 61.94040943 71.19916528 61.93376881 C70.28795923 61.92329518 69.37675318 61.91282154 68.43793482 61.90203053 C65.98844842 61.91037138 65.98844842 61.91037138 64.19135278 64.12908131 Z M197.06244653 61.34783131 C196.02797388 61.3929485 194.99350122 61.43806568 193.92768091 61.48455006 C192.83906763 61.53224537 191.75045435 61.57994068 190.62885278 61.62908131 C188.99013208 61.70062428 188.99013208 61.70062428 187.31830591 61.77361256 C184.60931304 61.89190919 181.90032916 62.01040775 179.19135278 62.12908131 C178.8610658 67.38741301 178.8610658 67.38741301 181.19135278 71.94158131 C184.79730852 74.57092403 187.71675962 75.91641053 192.19135278 76.12908131 C196.67631407 75.00784099 199.20582671 73.63942488 201.62885278 69.75408131 C203.05416816 66.44734963 203.6172856 64.64302702 203.19135278 61.12908131 C201.14769096 61.12908131 199.10362004 61.25859968 197.06244653 61.34783131 Z M214.19135278 90.12908131 C214.52135278 90.78908131 214.85135278 91.44908131 215.19135278 92.12908131 C217.83135278 92.12908131 220.47135278 92.12908131 223.19135278 92.12908131 C223.19135278 106.31908131 223.19135278 120.50908131 223.19135278 135.12908131 C223.85135278 135.12908131 224.51135278 135.12908131 225.19135278 135.12908131 C225.19135278 135.78908131 225.19135278 136.44908131 225.19135278 137.12908131 C229.57658285 138.19738883 233.8885129 138.34657206 238.37885278 138.37908131 C239.46456568 138.41001881 239.46456568 138.41001881 240.57221216 138.44158131 C242.91250389 138.4940748 242.91250389 138.4940748 246.19135278 138.12908131 C248.29619024 134.97182512 248.43855869 134.2553352 248.41840357 130.65764576 C248.41817697 129.30658489 248.41817697 129.30658489 248.4179458 127.92822987 C248.40762323 126.95939366 248.39730066 125.99055744 248.38666528 124.99236256 C248.38242044 123.50049679 248.38242044 123.50049679 248.37808985 121.97849232 C248.36688767 118.7994 248.34178292 115.62058859 248.31635278 112.44158131 C248.30632304 110.2872885 248.29719718 108.13299128 248.28900903 105.97869068 C248.26864912 100.69529206 248.22950022 95.41250142 248.19135278 90.12908131 C236.97135278 90.12908131 225.75135278 90.12908131 214.19135278 90.12908131 Z M17.19135278 93.12908131 C17.19135278 116.55908131 17.19135278 139.98908131 17.19135278 164.12908131 C33.69135278 164.12908131 50.19135278 164.12908131 67.19135278 164.12908131 C67.19135278 140.69908131 67.19135278 117.26908131 67.19135278 93.12908131 C59.27135278 93.62408131 59.27135278 93.62408131 51.19135278 94.12908131 C44.25705395 94.28148348 37.52876525 93.99422266 30.62494653 93.34783131 C26.15554933 93.06309156 21.66981101 93.12908131 17.19135278 93.12908131 Z M214.19135278 96.12908131 C214.19135278 108.00908131 214.19135278 119.88908131 214.19135278 132.12908131 C215.84135278 132.12908131 217.49135278 132.12908131 219.19135278 132.12908131 C219.19135278 120.24908131 219.19135278 108.36908131 219.19135278 96.12908131 C217.54135278 96.12908131 215.89135278 96.12908131 214.19135278 96.12908131 Z M214.19135278 136.12908131 C215.19135278 138.12908131 215.19135278 138.12908131 215.19135278 138.12908131 Z M67.19135278 168.12908131 C66.86135278 168.78908131 66.53135278 169.44908131 66.19135278 170.12908131 C67.51135278 169.79908131 68.83135278 169.46908131 70.19135278 169.12908131 C69.20135278 168.79908131 68.21135278 168.46908131 67.19135278 168.12908131 Z M-12.80864722 168.12908131 C-12.80864722 168.78908131 -12.80864722 169.44908131 -12.80864722 170.12908131 C-11.81864722 170.12908131 -10.82864722 170.12908131 -9.80864722 170.12908131 C-9.80864722 170.78908131 -9.80864722 171.44908131 -9.80864722 172.12908131 C-10.79864722 171.79908131 -11.78864722 171.46908131 -12.80864722 171.12908131 C-12.80864722 171.78908131 -12.80864722 172.44908131 -12.80864722 173.12908131 C63.42135278 173.12908131 139.65135278 173.12908131 218.19135278 173.12908131 C218.19135278 172.79908131 218.19135278 172.46908131 218.19135278 172.12908131 C215.22135278 171.79908131 212.25135278 171.46908131 209.19135278 171.12908131 C211.85799469 169.79576036 213.35815582 170.45806097 216.19135278 171.12908131 C216.85135278 170.13908131 217.51135278 169.14908131 218.19135278 168.12908131 C170.67135278 168.12908131 123.15135278 168.12908131 74.19135278 168.12908131 C73.86135278 168.78908131 73.53135278 169.44908131 73.19135278 170.12908131 C73.85135278 170.12908131 74.51135278 170.12908131 75.19135278 170.12908131 C75.19135278 170.78908131 75.19135278 171.44908131 75.19135278 172.12908131 C68.26135278 171.63408131 68.26135278 171.63408131 61.19135278 171.12908131 C61.85135278 170.46908131 62.51135278 169.80908131 63.19135278 169.12908131 C59.83345374 167.45013179 56.04450532 167.96591795 52.35150903 167.96111256 C51.47361215 167.95778416 50.59571527 167.95445576 49.69121546 167.9510265 C47.83262399 167.94595912 45.97402342 167.94361812 44.11542505 167.94377857 C41.26883732 167.94159281 38.42263749 167.92343723 35.57611841 167.90447193 C33.77208328 167.90153786 31.96804631 167.89955316 30.16400903 167.89861256 C29.31081583 167.89142704 28.45762262 167.88424153 27.57857507 167.87683827 C22.58838602 167.88582909 22.58838602 167.88582909 18.19135278 170.12908131 C19.51135278 170.45908131 20.83135278 170.78908131 22.19135278 171.12908131 C16.91135278 171.12908131 11.63135278 171.12908131 6.19135278 171.12908131 C9.26752466 170.83611256 9.26752466 170.83611256 12.34369653 170.54314381 C12.9534231 170.40650318 13.56314966 170.26986256 14.19135278 170.12908131 C14.52135278 169.46908131 14.85135278 168.80908131 15.19135278 168.12908131 C12.92077902 168.07509144 10.6498399 168.03629389 8.37885278 168.00408131 C7.11428247 167.98087818 5.84971216 167.95767506 4.54682153 167.93376881 C1.05755038 167.85326212 1.05755038 167.85326212 -1.80864722 170.12908131 C-1.14864722 170.45908131 -0.48864722 170.78908131 0.19135278 171.12908131 C-1.78864722 171.12908131 -3.76864722 171.12908131 -5.80864722 171.12908131 C-5.47864722 170.13908131 -5.14864722 169.14908131 -4.80864722 168.12908131 C-7.44864722 168.12908131 -10.08864722 168.12908131 -12.80864722 168.12908131 Z " fill="#FDFEFE" transform="translate(38.80864721536636,26.870918691158295)"/>
<path d="M0 0 C11.55 0 23.1 0 35 0 C36.36421031 2.72842061 35.87807211 4.60953318 35.5625 7.625 C35.46066406 8.62789062 35.35882813 9.63078125 35.25390625 10.6640625 C35.17011719 11.43492188 35.08632813 12.20578125 35 13 C32.69 13.66 30.38 14.32 28 15 C30.22496562 29.18903515 33.53817648 43.06704217 37 57 C37.26425781 56.06929687 37.52851562 55.13859375 37.80078125 54.1796875 C38.68122529 51.09774755 39.57769842 48.02078436 40.48046875 44.9453125 C44.01120899 32.90983159 47.46939949 20.85897268 50.77807617 8.76025391 C51.05498291 7.75784668 51.33188965 6.75543945 51.6171875 5.72265625 C51.86065918 4.83328369 52.10413086 3.94391113 52.35498047 3.02758789 C53 1 53 1 54 0 C56.35313555 -0.07271741 58.70833668 -0.08370868 61.0625 -0.0625 C62.35285156 -0.05347656 63.64320313 -0.04445313 64.97265625 -0.03515625 C65.97167969 -0.02355469 66.97070312 -0.01195313 68 0 C71.14675262 7.76602409 73.27373235 15.81096386 75.5 23.875 C76.27975131 26.68531357 77.06144029 29.49508515 77.84375 32.3046875 C78.12508789 33.31665192 78.12508789 33.31665192 78.41210938 34.34906006 C79.67420887 38.87469576 80.99020877 43.38063238 82.35742188 47.87548828 C83.2743415 50.90703637 84.13867734 53.9522429 85 57 C87.79189416 46.39392164 90.15577427 35.73610247 92.33666992 24.98828125 C92.53881104 23.99570313 92.74095215 23.003125 92.94921875 21.98046875 C93.12799561 21.09254639 93.30677246 20.20462402 93.4909668 19.28979492 C94 17 94 17 95 14 C92.36 13.67 89.72 13.34 87 13 C87 8.71 87 4.42 87 0 C98.55 0 110.1 0 122 0 C122.495 5.94 122.495 5.94 123 12 C116.25 14 116.25 14 114 14 C114.020625 15.134375 114.04125 16.26875 114.0625 17.4375 C114 21 114 21 113 22 C112.50898906 24.04829227 112.06635494 26.10822345 111.64453125 28.171875 C110.10234386 35.55868169 108.41681251 42.90457648 106.6875 50.25 C106.07385296 52.86449834 105.4604736 55.47905728 104.84765625 58.09375 C104.69411682 58.74841248 104.54057739 59.40307495 104.38238525 60.07757568 C103.32313454 64.60067798 102.28054104 69.12739645 101.24609375 73.65625 C100.9725708 74.85217773 100.69904785 76.04810547 100.41723633 77.28027344 C99.8981041 79.55389661 99.38094155 81.82797062 98.8659668 84.10253906 C98.63433838 85.11541992 98.40270996 86.12830078 98.1640625 87.171875 C97.96248535 88.0597168 97.7609082 88.94755859 97.55322266 89.86230469 C97 92 97 92 96 94 C89.73 94 83.46 94 77 94 C76.62488281 92.5975 76.24976563 91.195 75.86328125 89.75 C72.34580622 76.68339213 72.34580622 76.68339213 68.375 63.75 C65.66385068 55.29191603 63.80060939 46.69120956 62 38 C61.34 38 60.68 38 60 38 C59.81824219 38.81791016 59.81824219 38.81791016 59.6328125 39.65234375 C59.27919728 41.24361223 58.92498549 42.8347482 58.5703125 44.42578125 C58.20647626 46.06802839 57.84667785 47.71117891 57.4921875 49.35546875 C57.32976563 50.10441406 57.16734375 50.85335937 57 51.625 C56.855625 52.29789063 56.71125 52.97078125 56.5625 53.6640625 C55.80601917 56.80555929 54.89957656 59.89662807 54 63 C53.70480469 64.03898437 53.40960937 65.07796875 53.10546875 66.1484375 C50.45938474 75.44914131 47.73671966 84.72556115 45 94 C38.73 94 32.46 94 26 94 C23.92131887 86.95930586 21.9606268 80.27826251 21 73 C20.31874458 70.10087559 19.53387201 67.22873418 18.765625 64.3515625 C15.82182172 53.2503383 13.04244861 42.13488861 10.56152344 30.92041016 C10.36977539 30.05464355 10.17802734 29.18887695 9.98046875 28.296875 C9.81442139 27.53729492 9.64837402 26.77771484 9.47729492 25.99511719 C8.9854932 23.81177481 8.9854932 23.81177481 8 21 C7.96045766 18.66700175 7.95598268 16.33291811 8 14 C5.36 13.67 2.72 13.34 0 13 C0 8.71 0 4.42 0 0 Z " fill="#FEFEFE" transform="translate(476,70)"/>
<path d="M0 0 C6.634497 -0.07463953 13.26874485 -0.12883254 19.90356445 -0.16479492 C22.1565375 -0.17980076 24.40948175 -0.20021191 26.66235352 -0.22631836 C29.91690214 -0.26306443 33.17106166 -0.27980894 36.42578125 -0.29296875 C37.41894852 -0.30845261 38.41211578 -0.32393646 39.43537903 -0.33988953 C49.79758006 -0.34233494 59.42854928 1.99281173 68 8 C70.3125 10.3125 70.3125 10.3125 72 13 C72.55494141 13.82757813 72.55494141 13.82757813 73.12109375 14.671875 C76.90167551 21.00336833 77.17451205 28.03091056 75.4921875 35.1484375 C73.90086662 39.33708672 71.23555236 42.00711406 68 45 C66.97186389 46.31175986 65.95915568 47.6369893 65 49 C65.886875 49.495 66.77375 49.99 67.6875 50.5 C72.30157321 53.69603653 75.29007725 57.36963256 76.390625 62.99755859 C76.94605217 66.77727354 77.31882306 70.56132615 77.640625 74.3671875 C77.76459245 77.82667666 77.76459245 77.82667666 79 80 C80.97888961 80.72693904 82.97954558 81.39816251 85 82 C85.08196118 86.18001995 84.89445704 89.92212105 84 94 C66.2440981 94.76736191 66.2440981 94.76736191 61 90 C56.48099264 84.41439463 56.59170188 78.21078538 56.265625 71.2890625 C55.87331483 66.43133957 54.91340991 62.74000391 51.19238281 59.35620117 C48.67187527 57.79702306 47.17530062 57.58254169 44.234375 57.48828125 C43.03119629 57.43861206 43.03119629 57.43861206 41.80371094 57.38793945 C40.79598633 57.36304443 39.78826172 57.33814941 38.75 57.3125 C35.5325 57.209375 32.315 57.10625 29 57 C29 64.59 29 72.18 29 80 C32.3 80.33 35.6 80.66 39 81 C40.25069801 83.50139602 40.13302467 85.27392691 40.125 88.0625 C40.12886719 89.41021484 40.12886719 89.41021484 40.1328125 90.78515625 C40 93 40 93 39 94 C36.1156618 94.08865208 33.25537842 94.11521296 30.37109375 94.09765625 C29.07474754 94.09553383 29.07474754 94.09553383 27.75221252 94.09336853 C24.98060708 94.08775239 22.2090812 94.07519719 19.4375 94.0625 C17.5631522 94.05748708 15.68880315 94.05292381 13.81445312 94.04882812 C9.20960456 94.03777772 4.60481579 94.0205023 0 94 C0 90.04 0 86.08 0 82 C5 80 5 80 9 80 C9 58.22 9 36.44 9 14 C6.03 13.67 3.06 13.34 0 13 C0 8.71 0 4.42 0 0 Z M29 16 C29 24.25 29 32.5 29 41 C42.23931494 41.95673436 42.23931494 41.95673436 54 37 C56.36056033 33.1631026 56.67931298 29.40704295 56 25 C53.54936935 20.00448367 51.11996008 18.01980076 46 16 C43.0248637 15.66085262 40.11407136 15.71448344 37.125 15.8125 C33.103125 15.9053125 33.103125 15.9053125 29 16 Z " fill="#FEFEFE" transform="translate(892,70)"/>
<path d="M0 0 C24.42 0 48.84 0 74 0 C74.78926177 4.73557065 75.13465519 8.74964626 75.125 13.5 C75.12886719 15.40265625 75.12886719 15.40265625 75.1328125 17.34375 C75 21 75 21 74 27 C68.72 27 63.44 27 58 27 C58 23.37 58 19.74 58 16 C48.43 16 38.86 16 29 16 C29 22.93 29 29.86 29 37 C39.77108869 37.07277763 50.28835425 37.12754166 61 36 C61 41.61 61 47.22 61 53 C56.76424794 53.16565817 52.52863258 53.32809193 48.29248047 53.48217773 C46.85100177 53.5355959 45.40959259 53.59092518 43.96826172 53.64819336 C41.89826447 53.73010997 39.82811573 53.80518359 37.7578125 53.87890625 C36.5114502 53.9260376 35.26508789 53.97316895 33.98095703 54.02172852 C31 54 31 54 29 53 C29 61.25 29 69.5 29 78 C38.57 78 48.14 78 58 78 C58 75.69 58 73.38 58 71 C58.495 69.02 58.495 69.02 59 67 C63.95 67 68.9 67 74 67 C74 75.91 74 84.82 74 94 C49.25 94 24.5 94 -1 94 C-0.67 89.71 -0.34 85.42 0 81 C4.455 80.505 4.455 80.505 9 80 C9 58.22 9 36.44 9 14 C6.03 13.67 3.06 13.34 0 13 C0 8.71 0 4.42 0 0 Z " fill="#FEFEFE" transform="translate(981,70)"/>
<path d="M0 0 C10.23661923 7.57820547 15.4104393 19.34070604 17.84765625 31.5703125 C19.80763235 44.71848553 17.81047558 59.52046088 10.31640625 70.71484375 C3.43373811 79.8599335 -4.41292368 86.12024158 -15.68359375 88.71484375 C-18.6480414 89.0021258 -21.58162052 89.0493094 -24.55859375 89.02734375 C-25.35579834 89.0217041 -26.15300293 89.01606445 -26.97436523 89.01025391 C-38.56332096 88.77062149 -46.80168766 84.31172616 -55.37109375 76.58984375 C-66.5737751 64.84005471 -67.63657318 48.98721221 -67.6953125 33.65625 C-67.0454974 20.8641756 -60.74541894 10.15678411 -51.4140625 1.64453125 C-36.30967103 -10.65512654 -16.13805824 -10.32936748 0 0 Z M-40.5078125 14.703125 C-43.83632825 19.36949454 -45.90955763 24.01245106 -46.68359375 29.71484375 C-46.81636719 30.67132813 -46.94914062 31.6278125 -47.0859375 32.61328125 C-48.26963845 43.59909006 -47.91979411 55.23397826 -41.68359375 64.71484375 C-41.08546875 65.64296875 -40.48734375 66.57109375 -39.87109375 67.52734375 C-35.32378098 72.07465652 -30.97879638 72.91655424 -24.74609375 73.15234375 C-19.28259096 72.96818073 -14.88808926 72.39377732 -10.68359375 68.71484375 C-2.13471602 57.570771 -0.79692135 45.40420822 -2.36328125 31.76171875 C-3.46043841 24.75061688 -5.84009724 17.86915827 -11.18359375 13.02734375 C-20.02157832 6.72531193 -32.7189308 6.2137443 -40.5078125 14.703125 Z " fill="#FDFEFE" transform="translate(453.68359375,76.28515625)"/>
<path d="M0 0 C10.33844982 8.45873167 15.12346365 19.66612512 17.0625 32.6875 C18.47435985 47.58089966 15.40005573 61.84668464 6.0625 73.6875 C5.53914062 74.35265625 5.01578125 75.0178125 4.4765625 75.703125 C-1.86489723 82.81793347 -11.41142929 87.35341644 -20.87890625 87.92578125 C-35.0878513 88.26768303 -45.26917329 85.92150554 -55.80859375 75.91015625 C-65.39917897 65.82457308 -68.81063439 52.29383695 -68.9375 38.6875 C-67.78862812 23.20964268 -64.29358306 11.12622348 -52.5625 0.3125 C-36.90805736 -12.07461631 -15.9143882 -11.36742014 0 0 Z M-43.68359375 16.62109375 C-50.06325929 27.13462356 -49.49844368 42.8027332 -47.17578125 54.53515625 C-45.07210235 61.24530989 -42.59028497 66.3007016 -36.4375 70 C-30.45614355 72.73401554 -23.91691588 72.69233578 -17.6015625 71.09765625 C-11.77131939 68.67397281 -8.61301149 64.263566 -5.9375 58.6875 C-1.04506718 45.30254227 -2.14863338 31.885053 -6.9375 18.6875 C-10.29099881 12.96829039 -14.46692894 9.44223113 -20.9375 7.6875 C-30.32089311 6.47227368 -37.8433431 8.99853228 -43.68359375 16.62109375 Z " fill="#FDFEFE" transform="translate(868.9375,77.3125)"/>
<path d="M0 0 C6.75860231 -0.0746955 13.51695916 -0.12885851 20.27587891 -0.16479492 C22.5705179 -0.17979151 24.86512867 -0.20019551 27.15966797 -0.22631836 C30.47630825 -0.2631058 33.79256642 -0.2798182 37.109375 -0.29296875 C38.11925476 -0.30845261 39.12913452 -0.32393646 40.1696167 -0.33988953 C50.52519581 -0.34228365 62.65161367 1.34550706 70.6796875 8.49609375 C77.88818775 16.26047337 79.69143442 23.90541432 79.38671875 34.40234375 C78.57718064 41.93350136 75.41741668 47.70297036 70 53 C57.5521406 61.43922671 44.41167679 61.12009731 30 61 C30 67.27 30 73.54 30 80 C32.97 80.33 35.94 80.66 39 81 C39 85.29 39 89.58 39 94 C26.13 94 13.26 94 0 94 C0 89.71 0 85.42 0 81 C4.95 80.505 4.95 80.505 10 80 C9.67 58.55 9.34 37.1 9 15 C4.545 14.01 4.545 14.01 0 13 C0 8.71 0 4.42 0 0 Z M30 16 C30 25.57 30 35.14 30 45 C42.22975708 45.6828448 42.22975708 45.6828448 54 43 C57.88770713 39.11229287 59.1811332 36.21840129 59.375 30.8125 C59.32451495 26.00379902 58.54261134 23.16643149 55.6796875 19.33984375 C50.67119489 15.34469732 44.68087008 15.75042084 38.625 15.875 C35.77875 15.91625 32.9325 15.9575 30 16 Z " fill="#FEFEFE" transform="translate(302,70)"/>
<path d="M0 0 C0.94166016 0.61681641 0.94166016 0.61681641 1.90234375 1.24609375 C2.93911255 1.88272949 2.93911255 1.88272949 3.99682617 2.53222656 C5.90234375 4.24609375 5.90234375 4.24609375 6.35644531 6.42260742 C6.33549805 7.2447876 6.31455078 8.06696777 6.29296875 8.9140625 C6.28007813 9.80673828 6.2671875 10.69941406 6.25390625 11.61914062 C6.22039062 12.54791016 6.186875 13.47667969 6.15234375 14.43359375 C6.13429688 15.37396484 6.11625 16.31433594 6.09765625 17.28320312 C6.05052127 19.60460111 5.97877765 21.92547569 5.90234375 24.24609375 C0.62234375 24.24609375 -4.65765625 24.24609375 -10.09765625 24.24609375 C-12.09765625 14.62109375 -12.09765625 14.62109375 -12.09765625 11.24609375 C-20.4131887 8.9910341 -30.10429078 7.27964725 -38.34765625 10.62109375 C-41.18042055 11.95951782 -41.18042055 11.95951782 -42.09765625 14.24609375 C-42.64167025 19.65205526 -42.64167025 19.65205526 -40.72265625 24.49609375 C-36.2413248 27.48364805 -31.28607645 29.11094938 -26.23242188 30.91015625 C-1.28102673 39.80565853 -1.28102673 39.80565853 4.9296875 51.1171875 C7.54681512 57.11125399 8.14214204 63.57696098 6.03515625 69.8125 C5.06859009 72.01020336 4.03723229 74.13128137 2.90234375 76.24609375 C2.57234375 76.90609375 2.24234375 77.56609375 1.90234375 78.24609375 C1.24234375 78.24609375 0.58234375 78.24609375 -0.09765625 78.24609375 C-0.09765625 78.90609375 -0.09765625 79.56609375 -0.09765625 80.24609375 C-1.49609375 81.4296875 -1.49609375 81.4296875 -3.47265625 82.68359375 C-4.09914063 83.09480469 -4.725625 83.50601563 -5.37109375 83.9296875 C-12.88209973 87.55606145 -20.1873053 88.78022039 -28.47265625 88.68359375 C-29.8479248 88.67223389 -29.8479248 88.67223389 -31.25097656 88.66064453 C-43.33468553 88.36784861 -52.34290644 84.49258029 -61.69433594 76.95996094 C-63.57206189 74.66670481 -63.44400538 73.29529567 -63.390625 70.359375 C-63.38095703 69.42158203 -63.37128906 68.48378906 -63.36132812 67.51757812 C-63.32362305 66.05288086 -63.32362305 66.05288086 -63.28515625 64.55859375 C-63.27162109 63.57052734 -63.25808594 62.58246094 -63.24414062 61.56445312 C-63.20878286 59.12476758 -63.15497587 56.68536212 -63.09765625 54.24609375 C-58.14765625 54.57609375 -53.19765625 54.90609375 -48.09765625 55.24609375 C-46.60729734 60.46234994 -45.85023659 63.17399078 -46.09765625 68.24609375 C-44.68163911 68.7271765 -43.26481188 69.20587516 -41.84765625 69.68359375 C-41.05875 69.95042969 -40.26984375 70.21726562 -39.45703125 70.4921875 C-33.0709395 72.53277642 -26.63964522 73.50294295 -20.22265625 70.99609375 C-16.30330301 68.88331162 -16.30330301 68.88331162 -14.09765625 65.24609375 C-13.90982996 61.28540893 -14.23217098 58.37101195 -16.6875 55.1796875 C-19.73587736 52.73406871 -22.94802891 51.55600562 -26.59765625 50.30859375 C-28.03697572 49.79049761 -29.47577431 49.27095223 -30.9140625 48.75 C-31.62320801 48.49621582 -32.33235352 48.24243164 -33.06298828 47.98095703 C-43.85285107 44.08397035 -55.85432387 39.56988979 -62.09765625 29.24609375 C-63.92236469 22.50698651 -64.44948388 14.33492297 -61.53515625 7.87109375 C-56.93627829 0.09334225 -49.1814263 -4.05114953 -40.85546875 -6.83984375 C-26.67109006 -10.29009803 -12.46089034 -7.29476306 0 0 Z " fill="#FDFEFE" transform="translate(700.09765625,76.75390625)"/>
<path d="M0 0 C27.72 0 55.44 0 84 0 C84 8.58 84 17.16 84 26 C78.39 26 72.78 26 67 26 C67 22.7 67 19.4 67 16 C62.05 16.33 57.1 16.66 52 17 C52 37.46 52 57.92 52 79 C54.97 79.66 57.94 80.32 61 81 C62.08169281 85.32677122 62.1453415 88.56708416 62 93 C61 94 61 94 57.30639648 94.11352539 C55.66128708 94.11336624 54.01617269 94.10766988 52.37109375 94.09765625 C51.07474754 94.09553383 51.07474754 94.09553383 49.75221252 94.09336853 C46.98060708 94.08775239 44.2090812 94.07519719 41.4375 94.0625 C39.5631522 94.05748708 37.68880315 94.05292381 35.81445312 94.04882812 C31.20960456 94.03777772 26.60481579 94.0205023 22 94 C20.70278551 90.10835652 20.86966007 87.10570774 21 83 C21.33 82.34 21.66 81.68 22 81 C26.455 80.505 26.455 80.505 31 80 C31 58.88 31 37.76 31 16 C26.05 16 21.1 16 16 16 C16 19.3 16 22.6 16 26 C10.72 26 5.44 26 0 26 C0 17.42 0 8.84 0 0 Z " fill="#FEFEFE" transform="translate(712,70)"/>
<path d="M0 0 C3.96 0 7.92 0 12 0 C12.33 1.32 12.66 2.64 13 4 C10.36 4.33 7.72 4.66 5 5 C5.33 5.66 5.66 6.32 6 7 C6.08527628 9.03232634 6.10716135 11.06747006 6.09765625 13.1015625 C6.09282227 14.91914063 6.09282227 14.91914063 6.08789062 16.7734375 C6.07951172 18.04445312 6.07113281 19.31546875 6.0625 20.625 C6.05798828 21.90375 6.05347656 23.1825 6.04882812 24.5 C6.03701203 27.66671292 6.02053815 30.83333356 6 34 C12.24626959 28.68172891 18.16666613 23.07862956 24 17.3125 C25.30517578 16.05083008 25.30517578 16.05083008 26.63671875 14.76367188 C27.86841797 13.54454102 27.86841797 13.54454102 29.125 12.30078125 C29.87007812 11.57028564 30.61515625 10.83979004 31.3828125 10.0871582 C33.4083243 7.91307336 33.4083243 7.91307336 33 4 C33 2.68 33 1.36 33 0 C36.63 0 40.26 0 44 0 C44.495 1.98 44.495 1.98 45 4 C43.68435669 5.91018677 43.68435669 5.91018677 41.64111328 7.91064453 C40.88347687 8.6646756 40.12584045 9.41870667 39.34524536 10.19558716 C38.09540359 11.4020137 38.09540359 11.4020137 36.8203125 12.6328125 C35.55657303 13.88238235 35.55657303 13.88238235 34.26730347 15.15719604 C31.56469351 17.82510706 28.84556441 20.475411 26.125 23.125 C23.41505925 25.78506749 20.70858045 28.44858897 18.00411987 31.11422729 C16.31756965 32.77426646 14.62716035 34.43039533 12.93264771 36.08230591 C12.16870697 36.83003265 11.40476624 37.5777594 10.61767578 38.34814453 C9.60388351 39.33598434 9.60388351 39.33598434 8.5696106 40.34378052 C5.82321287 43.24172057 5.88772876 45.24284331 5.9375 49.125 C5.95103516 50.49011719 5.95103516 50.49011719 5.96484375 51.8828125 C5.97644531 52.58148438 5.98804688 53.28015625 6 54 C8.28836222 54.41986946 8.28836222 54.41986946 11 54 C13.53041404 51.88334058 13.53041404 51.88334058 16 49 C17.09194457 47.9057165 18.19129768 46.81878951 19.296875 45.73828125 C20.44794781 44.59638556 21.59898906 43.45445805 22.75 42.3125 C23.33910156 41.73177734 23.92820313 41.15105469 24.53515625 40.55273438 C27.64906764 37.56844684 27.64906764 37.56844684 30 34 C31.32 34.33 32.64 34.66 34 35 C33.43379699 38.77468671 31.87731019 40.47551893 29.18359375 43.109375 C28.41982422 43.86347656 27.65605469 44.61757812 26.86914062 45.39453125 C25.66547852 46.56048828 25.66547852 46.56048828 24.4375 47.75 C23.63119141 48.54277344 22.82488281 49.33554688 21.99414062 50.15234375 C20.00266222 52.10847046 18.00452279 54.05725719 16 56 C16.66 57.32 17.32 58.64 18 60 C23.1042853 60.22405694 28.20565677 60.38649831 33.3137207 60.49438477 C35.04730122 60.53938979 36.780545 60.60062043 38.51293945 60.67895508 C48.62339318 61.38762892 48.62339318 61.38762892 57.91845703 58.20263672 C60.17025849 55.92374592 62.06634614 53.55054716 64 51 C65.31250066 49.78293652 66.6573123 48.59959308 68.03515625 47.45703125 C72.37065364 43.729987 76.40754234 39.73999237 80.4375 35.6875 C81.15615234 34.97271484 81.87480469 34.25792969 82.61523438 33.52148438 C83.63907227 32.49571289 83.63907227 32.49571289 84.68359375 31.44921875 C85.29775146 30.83393311 85.91190918 30.21864746 86.54467773 29.5847168 C88.09170925 28.04624733 88.09170925 28.04624733 89 26 C89.66 26 90.32 26 91 26 C91.2371875 25.43796875 91.474375 24.8759375 91.71875 24.296875 C93.28947697 21.48105958 95.21471464 19.52044584 97.5 17.25 C98.2940625 16.45078125 99.088125 15.6515625 99.90625 14.828125 C102 13 102 13 104 13 C104 10.03 104 7.06 104 4 C100.37 4 96.74 4 93 4 C93 2.68 93 1.36 93 0 C97.95 0 102.9 0 108 0 C108.06901579 4.60872083 108.12870199 9.2156363 108.16479492 13.82446289 C108.17984622 15.39093107 108.20029207 16.95735736 108.22631836 18.52368164 C108.26286433 20.78021606 108.27976261 23.03619153 108.29296875 25.29296875 C108.30845261 25.98899704 108.32393646 26.68502533 108.33988953 27.40214539 C108.3413895 31.77316766 107.668629 34.51200697 105 38 C104.67 38 104.34 38 104 38 C103.505 29.09 103.505 29.09 103 20 C97.721109 25.20489849 92.45202191 30.41944991 87.19189453 35.64331055 C85.39998158 37.42010941 83.60538915 39.19421015 81.80810547 40.96557617 C79.22960526 43.50780956 76.66080336 46.05949631 74.09375 48.61328125 C73.28442017 49.40712723 72.47509033 50.20097321 71.64123535 51.01887512 C70.90046753 51.75941635 70.15969971 52.49995758 69.39648438 53.26293945 C68.73918335 53.91357864 68.08188232 54.56421783 67.40466309 55.23457336 C65.68869119 57.01525301 65.68869119 57.01525301 66 60 C78.21 60 90.42 60 103 60 C103.33 55.38 103.66 50.76 104 46 C108 50 108 50 108 66 C72.36 66 36.72 66 0 66 C0 44.22 0 22.44 0 0 Z " fill="#FDFEFE" transform="translate(123,117)"/>
<path d="M0 0 C0.66 0.66 1.32 1.32 2 2 C2.680625 2.165 3.36125 2.33 4.0625 2.5 C4.701875 2.665 5.34125 2.83 6 3 C7.13127933 5.26255865 7.12890585 6.51787909 7.1328125 9.02734375 C7.13474609 10.21553711 7.13474609 10.21553711 7.13671875 11.42773438 C7.13285156 12.25595703 7.12898438 13.08417969 7.125 13.9375 C7.13080078 15.1740332 7.13080078 15.1740332 7.13671875 16.43554688 C7.13542969 17.22896484 7.13414063 18.02238281 7.1328125 18.83984375 C7.13168457 19.56550537 7.13055664 20.29116699 7.12939453 21.03881836 C7 23 7 23 6 26 C-7.86 26 -21.72 26 -36 26 C-36 18.41 -36 10.82 -36 3 C-31.84234198 0.92117099 -28.70346807 0.56804206 -24.1875 0.375 C-23.4442749 0.33850342 -22.7010498 0.30200684 -21.93530273 0.2644043 C-5.81457249 -0.46548138 -5.81457249 -0.46548138 0 0 Z M-32 7 C-32 11.95 -32 16.9 -32 22 C-20.78 22 -9.56 22 2 22 C2 17.05 2 12.1 2 7 C-9.22 7 -20.44 7 -32 7 Z " fill="#FDFEFE" transform="translate(96,123)"/>
<path d="M0 0 C1.2463623 0.01047363 2.49272461 0.02094727 3.77685547 0.03173828 C4.77143265 0.03598312 4.77143265 0.03598312 5.78610229 0.04031372 C7.9055988 0.05151643 10.02467401 0.07662027 12.14404297 0.10205078 C13.58023479 0.11208051 15.01643322 0.12120637 16.45263672 0.12939453 C19.97490925 0.15145578 23.496935 0.18598585 27.01904297 0.22705078 C27.01904297 1.54705078 27.01904297 2.86705078 27.01904297 4.22705078 C25.87991455 4.14769287 24.74078613 4.06833496 23.56713867 3.98657227 C15.77046751 3.74260359 9.44051289 3.91862183 3.42990112 9.31558228 C0.56563444 12.20752253 -2.1351508 15.20841409 -4.79345703 18.28955078 C-6.46275983 20.14976879 -8.14429192 21.99695043 -9.8400116 23.83311462 C-10.88197902 24.96872728 -11.90708409 26.1201168 -12.9120636 27.28858948 C-15.18221054 29.83017537 -16.37323756 31.15162664 -19.82739258 31.58032227 C-20.53806885 31.46374268 -21.24874512 31.34716309 -21.98095703 31.22705078 C-21.43701531 27.26268212 -19.59166396 25.5125133 -16.76220703 22.78564453 C-15.91271484 21.95484375 -15.06322266 21.12404297 -14.18798828 20.26806641 C-13.29466797 19.40890625 -12.40134766 18.54974609 -11.48095703 17.66455078 C-9.71607928 15.95952098 -7.95544389 14.2500856 -6.19970703 12.53564453 C-5.4153125 11.78081787 -4.63091797 11.02599121 -3.82275391 10.24829102 C-1.77009534 8.26984784 -1.77009534 8.26984784 -0.98095703 5.22705078 C-2.30095703 4.23705078 -3.62095703 3.24705078 -4.98095703 2.22705078 C-2.98095703 0.22705078 -2.98095703 0.22705078 0 0 Z " fill="#FCFEFE" transform="translate(180.98095703125,116.77294921875)"/>
<path d="M0 0 C2.15323612 1.43549075 2.79260731 2.55558708 3.875 4.875 C4.06775334 8.15180683 3.12590355 9.54192402 1 12 C-2.4375 13.0625 -2.4375 13.0625 -6 13 C-8.4375 11.4375 -8.4375 11.4375 -10 9 C-10.45319325 5.82764724 -10.52990283 3.93512264 -8.9375 1.125 C-5.8930714 -0.64273274 -3.4368988 -0.36823916 0 0 Z M-5 4 C-5 5.32 -5 6.64 -5 8 C-3.68 8 -2.36 8 -1 8 C-1 6.68 -1 5.36 -1 4 C-2.32 4 -3.64 4 -5 4 Z " fill="#FCFDFE" transform="translate(70,165)"/>
<path d="M0 0 C3.63 0 7.26 0 11 0 C11 0.66 11 1.32 11 2 C9.54207116 2.05399736 8.08357288 2.09279177 6.625 2.125 C5.81289062 2.14820313 5.00078125 2.17140625 4.1640625 2.1953125 C2 2 2 2 0 0 Z " fill="#FFFFFF" transform="translate(131,197)"/>
<path d="M0 0 C2.49310643 3.73965964 2.0603261 5.29070641 1.625 9.6875 C1.51414063 10.86699219 1.40328125 12.04648438 1.2890625 13.26171875 C1.19367187 14.16535156 1.09828125 15.06898438 1 16 C0.67 16 0.34 16 0 16 C0 10.72 0 5.44 0 0 Z " fill="#FFFFFF" transform="translate(57,128)"/>
<path d="M0 0 C1.65 0 3.3 0 5 0 C5 0.33 5 0.66 5 1 C3.35 1 1.7 1 0 1 C0 0.67 0 0.34 0 0 Z " fill="#FFFFFF" transform="translate(89,198)"/>
<path d="M0 0 C3 1 3 1 3 1 Z " fill="#FFFFFF" transform="translate(234,198)"/>
<path d="M0 0 C3 1 3 1 3 1 Z " fill="#FFFFFF" transform="translate(124,188)"/>
<path d="" fill="#FFFFFF" transform="translate(0,0)"/>
<path d="" fill="#FFFFFF" transform="translate(0,0)"/>
<path d="" fill="#FFFFFF" transform="translate(0,0)"/>
</svg>
